<svg
            id="visual"
            viewBox="0 0 900 600"
            width="900"
            height="600"
            xmlns="http://www.w3.org/2000/svg"
            xmlns:xlink="http://www.w3.org/1999/xlink"
            version="1.1"
          >
            <g transform="translate(422.70819930980326 295.86602131004645)">
              <path
                d="M157.6 -168.5C190.8 -124.5 194.9 -62.2 199.1 4.2C203.4 70.7 207.8 141.4 174.6 184.9C141.4 228.4 70.7 244.7 11.8 232.9C-47.1 221.1 -94.3 181.3 -120.3 137.8C-146.3 94.3 -151.1 47.1 -145.2 5.9C-139.4 -35.4 -122.7 -70.7 -96.7 -114.7C-70.7 -158.7 -35.4 -211.4 13.4 -224.8C62.2 -238.2 124.5 -212.5 157.6 -168.5"
                fill="#BB004B"
              ></path>
            </g>
            <g transform="translate(453.2934827572365 312.5092437654755)">
              <path
                d="M126.9 -118.9C161.4 -92.4 184.2 -46.2 189.5 5.3C194.8 56.8 182.6 113.6 148.1 138.6C113.6 163.6 56.8 156.8 4.5 152.3C-47.8 147.9 -95.7 145.7 -127.9 120.7C-160 95.7 -176.5 47.8 -187.9 -11.4C-199.4 -70.7 -205.8 -141.4 -173.6 -167.9C-141.4 -194.4 -70.7 -176.7 -12.3 -164.5C46.2 -152.2 92.4 -145.4 126.9 -118.9"
                fill="#BB004B"
              ></path>
            </g>
          </svg>